<svg id="Gmail" xmlns="http://www.w3.org/2000/svg" width="24" height="24" viewBox="0 0 24 24">
  <g id="Gmail-2" data-name="Gmail" transform="translate(1 3)">
    <path id="Path" d="M1.106.09A.75.75,0,0,0,0,.75v9.5a.75.75,0,0,0,1.5,0V2.006l5.394,2.9a.75.75,0,0,0,.711,0L13,2.006V10.25a.75.75,0,0,0,1.5,0V.75A.75.75,0,0,0,13.394.09L7.25,3.4Z" transform="translate(3.75 3.75)"/>
    <path id="Shape" d="M10.381,17.03c-1.766,0-3.553-.08-5.311-.237l-1.517-.136A3.518,3.518,0,0,1,.373,13.652a35.51,35.51,0,0,1,0-10.274A3.52,3.52,0,0,1,3.552.373L5.07.237C6.828.079,8.615,0,10.381,0s3.552.08,5.311.237l1.517.136a3.52,3.52,0,0,1,3.18,3.006,35.51,35.51,0,0,1,0,10.274,3.519,3.519,0,0,1-3.18,3.005l-1.517.136C13.933,16.95,12.146,17.03,10.381,17.03Zm0-15.53c-1.721,0-3.463.078-5.177.231l-1.517.136A2.024,2.024,0,0,0,1.858,3.6a33.979,33.979,0,0,0,0,9.839,2.024,2.024,0,0,0,1.829,1.729L5.2,15.3c1.714.153,3.456.231,5.177.231s3.463-.078,5.177-.231l1.517-.136A2.024,2.024,0,0,0,18.9,13.434a33.979,33.979,0,0,0,0-9.839,2.024,2.024,0,0,0-1.829-1.729l-1.517-.136C13.843,1.578,12.1,1.5,10.381,1.5Z" transform="translate(0.62 0.485)"/>
  </g>
</svg>
