<svg xmlns="http://www.w3.org/2000/svg" width="24" height="24" viewBox="0 0 24 24">
  <g id="Group_3750" data-name="Group 3750" transform="translate(-1035 -851)">
    <g id="Solid_General_Home" data-name="Solid / General /Home" transform="translate(1039.5 854)">
      <g id="Home" transform="translate(-0.402 -0.375)">
        <path id="Path" d="M9.394.761A2.5,2.5,0,0,0,5.8.761L1,5.717A2.007,2.007,0,0,0,.472,6.751a28.756,28.756,0,0,0-.127,9.624L.521,17.5a.733.733,0,0,0,.725.62H4.6a.5.5,0,0,0,.5-.5v-7h5v7a.5.5,0,0,0,.5.5h3.353a.733.733,0,0,0,.724-.62l.177-1.13a28.759,28.759,0,0,0-.127-9.624,2.007,2.007,0,0,0-.532-1.034Z" transform="translate(0.402 0.375)" fill="#367553"/>
      </g>
    </g>
    <rect id="Rectangle_1315" data-name="Rectangle 1315" width="24" height="24" transform="translate(1035 851)" fill="none"/>
  </g>
</svg>
