<svg id="Whatsapp" xmlns="http://www.w3.org/2000/svg" width="24" height="24" viewBox="0 0 24 24">
  <g id="Whatsapp-2" data-name="Whatsapp" transform="translate(2 2)">
    <path id="Path" d="M2.083,0c.183,0,.386.015.579.443.128.285.344.81.519,1.238.137.333.249.607.277.663a.473.473,0,0,1,.02.448l-.028.058a1.429,1.429,0,0,1-.229.37c-.047.054-.1.112-.144.171-.085.1-.17.205-.242.277-.129.128-.262.266-.114.522A7.678,7.678,0,0,0,4.155,5.972a6.634,6.634,0,0,0,1.9,1.2c.07.03.127.055.169.076.257.128.411.108.559-.064s.643-.748.816-1,.341-.217.579-.128,1.5.709,1.761.837l.142.069a.82.82,0,0,1,.352.231,2.152,2.152,0,0,1-.148,1.221A2.609,2.609,0,0,1,8.548,9.631l-.136.015c-.435.053-.988.12-2.956-.655a10.412,10.412,0,0,1-4.35-3.8c-.026-.038-.043-.064-.053-.076l-.005-.007A4.977,4.977,0,0,1,0,2.462,2.834,2.834,0,0,1,.854.37L.9.32A.951.951,0,0,1,1.588,0C1.761,0,1.934,0,2.083,0Z" transform="translate(4.803 5.165)"/>
    <path id="Shape" d="M.483,19.838a.4.4,0,0,1-.317-.159A.4.4,0,0,1,.1,19.331l1.231-4.467A9.9,9.9,0,0,1,9.958,0,9.919,9.919,0,0,1,17,2.905a9.824,9.824,0,0,1,2.914,7.011,9.968,9.968,0,0,1-14.722,8.7l-4.607,1.2A.407.407,0,0,1,.483,19.838Zm4.711-2.717a1.5,1.5,0,0,1,.714.181A8.469,8.469,0,0,0,18.416,9.916a8.336,8.336,0,0,0-2.471-5.948A8.469,8.469,0,0,0,1.5,9.912a8.378,8.378,0,0,0,1.129,4.2,1.508,1.508,0,0,1,.148,1.15l-.724,2.628,2.762-.721A1.5,1.5,0,0,1,5.195,17.121Z" transform="translate(0.084)"/>
  </g>
</svg>
